<svg width="19" height="19" viewBox="0 0 19 19" fill="none" xmlns="http://www.w3.org/2000/svg">
<rect width="19" height="19" rx="9.5" fill="#303E4E"/>
<path d="M13.7475 7.23276C13.5875 7.08368 13.3711 7 13.1456 7C12.92 7 12.7036 7.08368 12.5437 7.23276L9.47866 10.0663L6.45634 7.23276C6.29638 7.08368 6.07999 7 5.85444 7C5.62889 7 5.4125 7.08368 5.25254 7.23276C5.17252 7.30717 5.109 7.3957 5.06566 7.49324C5.02232 7.59078 5 7.6954 5 7.80107C5 7.90674 5.02232 8.01136 5.06566 8.1089C5.109 8.20644 5.17252 8.29497 5.25254 8.36938L8.87249 11.7632C8.95185 11.8383 9.04628 11.8978 9.15032 11.9384C9.25436 11.9791 9.36595 12 9.47866 12C9.59136 12 9.70295 11.9791 9.80699 11.9384C9.91103 11.8978 10.0055 11.8383 10.0848 11.7632L13.7475 8.36938C13.8275 8.29497 13.891 8.20644 13.9343 8.1089C13.9777 8.01136 14 7.90674 14 7.80107C14 7.6954 13.9777 7.59078 13.9343 7.49324C13.891 7.3957 13.8275 7.30717 13.7475 7.23276Z" fill="white"/>
</svg>
