<svg width="20" height="20" viewBox="0 0 20 20" fill="none" xmlns="http://www.w3.org/2000/svg">
<g clip-path="url(#clip0_9_51)">
<path d="M9.99226 -0.00244141C6.89225 -0.00244141 4.36725 2.52256 4.36725 5.62256C4.3666 5.68957 4.37673 5.75626 4.39725 5.82006C4.44975 7.79381 5.30475 9.52006 6.30975 11.1201C7.34975 12.7738 8.5535 14.3238 9.326 15.9063C9.3768 16.0106 9.4556 16.0987 9.5536 16.1607C9.6516 16.2227 9.76492 16.2563 9.8809 16.2576C9.99687 16.2589 10.1109 16.2279 10.2103 16.168C10.3096 16.1082 10.3904 16.0219 10.4435 15.9188C11.256 14.3376 12.521 12.7851 13.6135 11.1326C14.7048 9.48006 15.6373 7.69506 15.6373 5.63256C15.6384 5.55314 15.6244 5.47423 15.596 5.40006C15.4748 2.40631 13.016 -0.00244141 9.99226 -0.00244141ZM9.99226 1.24756C12.4173 1.24756 14.3673 3.19881 14.3673 5.62256C14.3666 5.66746 14.3708 5.7123 14.3798 5.75631C14.3423 7.39131 13.5873 8.90631 12.571 10.4438C11.711 11.7451 10.7385 13.0888 9.89976 14.4851C9.10351 13.0951 8.18601 11.7538 7.36975 10.4563C6.37851 8.87756 5.63726 7.32506 5.63726 5.63131C5.6371 5.59484 5.63375 5.55845 5.62725 5.52256C5.64953 4.38014 6.11939 3.29213 6.93572 2.49262C7.75206 1.69312 8.84962 1.24603 9.99226 1.24756ZM9.99226 3.75006C8.96476 3.75006 8.11726 4.59756 8.11726 5.62506C8.11726 6.65256 8.96476 7.50006 9.99226 7.50006C11.021 7.50006 11.8673 6.65256 11.8673 5.62506C11.8673 4.59756 11.021 3.75006 9.99226 3.75006ZM9.99226 5.00006C10.3448 5.00006 10.6173 5.27256 10.6173 5.62506C10.6173 5.97756 10.3448 6.25006 9.99226 6.25006C9.90985 6.25124 9.82805 6.23588 9.75169 6.20488C9.67533 6.17389 9.60596 6.1279 9.54769 6.06963C9.48941 6.01135 9.44342 5.94198 9.41243 5.86562C9.38144 5.78926 9.36608 5.70746 9.36726 5.62506C9.36726 5.27256 9.63976 5.00006 9.99226 5.00006ZM15.1048 11.5338C14.9591 11.5342 14.8182 11.5854 14.7063 11.6786C14.5944 11.7718 14.5185 11.9011 14.4919 12.0443C14.4652 12.1875 14.4893 12.3355 14.5602 12.4627C14.631 12.59 14.744 12.6885 14.8798 12.7413C16.126 13.2463 16.9273 13.9076 17.2723 14.5163C17.6185 15.1251 17.6098 15.6513 17.1585 16.2988C16.2523 17.5938 13.3635 18.7413 10.066 18.7551C6.76726 18.7676 3.83851 17.6513 2.88101 16.3526C2.40226 15.7026 2.37851 15.1738 2.69976 14.5676C3.02226 13.9626 3.7935 13.2951 5.01975 12.7801C5.09897 12.7509 5.17144 12.7059 5.23281 12.6479C5.29418 12.59 5.34316 12.5201 5.3768 12.4427C5.41045 12.3653 5.42806 12.2818 5.42857 12.1974C5.42908 12.113 5.41249 12.0293 5.37978 11.9515C5.34708 11.8737 5.29894 11.8033 5.23829 11.7446C5.17763 11.6858 5.1057 11.64 5.02685 11.6099C4.94799 11.5797 4.86385 11.5658 4.77949 11.5691C4.69513 11.5724 4.6123 11.5927 4.536 11.6288C3.136 12.2163 2.11475 13.0063 1.596 13.9826C1.07725 14.9576 1.16726 16.1351 1.87476 17.0951C3.28975 19.0126 6.5135 20.0201 10.0735 20.0051C13.6323 19.9901 16.826 18.9588 18.1835 17.0176C18.8623 16.0463 18.9085 14.8638 18.3585 13.8988C17.811 12.9338 16.7673 12.1563 15.3485 11.5826C15.2714 11.5497 15.1885 11.5327 15.1048 11.5326V11.5338Z" fill="#303E4E"/>
</g>
<defs>
<clipPath id="clip0_9_51">
<rect width="20" height="20" fill="white"/>
</clipPath>
</defs>
</svg>
