<svg width="21" height="21" viewBox="0 0 21 21" fill="none" xmlns="http://www.w3.org/2000/svg">
<path fill-rule="evenodd" clip-rule="evenodd" d="M1.5 9.4724C1.5 5.09134 5.17133 1.5 9.75 1.5C14.3287 1.5 18 5.09134 18 9.4724C18 13.8535 14.3287 17.4448 9.75 17.4448C5.17133 17.4448 1.5 13.8535 1.5 9.4724ZM9.75 0C4.38755 0 0 4.21896 0 9.4724C0 14.7258 4.38755 18.9448 9.75 18.9448C12.1669 18.9448 14.3857 18.0878 16.0941 16.6653L19.728 20.1872C20.0255 20.4755 20.5003 20.4681 20.7886 20.1706C21.0768 19.8732 21.0694 19.3984 20.772 19.1101L17.1695 15.6188C18.6212 13.9675 19.5 11.8235 19.5 9.4724C19.5 4.21896 15.1125 0 9.75 0Z" fill="black"/>
</svg>
